<svg width="90" height="100" viewBox="0 0 90 100" fill="none" xmlns="http://www.w3.org/2000/svg">
<path d="M27.4569 14.0999L27.4336 55.6773C28.5523 55.7006 29.1816 55.6773 30.1371 55.6773L30.2303 38.6408C30.2303 27.7804 30.207 16.9199 30.2536 6.05948C30.2536 5.3137 30.4634 4.498 30.8363 3.86874C31.3956 2.91321 32.4444 2.77338 33.4931 2.77338H69.92C72.3205 2.77338 73.3226 3.77552 73.3226 6.1527V52.0416C74.3248 51.3191 75.1172 50.55 76.0028 50.0606L76.0727 5.80311C76.0727 5.57006 76.0727 5.36031 76.0494 5.12725C75.9562 3.93866 75.5133 2.8899 74.7676 1.95768C73.8819 0.862309 72.67 0.372891 71.3882 0H32.1414C32.0948 0.0466114 32.0715 0.0932213 32.0249 0.0932213C29.3913 0.536029 27.3171 2.84329 27.4336 6.10609C27.5269 8.76294 27.4569 11.4431 27.4569 14.0999Z" fill="black"/>
<path d="M51.7882 43.5115C47.0338 43.5115 42.2794 43.5115 37.5251 43.5115C36.0801 43.5115 35.614 43.0454 35.614 41.6237C35.614 39.2698 35.614 36.8926 35.614 34.5388C35.614 33.187 36.1267 32.6743 37.4785 32.6743C46.9872 32.6743 56.4726 32.6743 65.9814 32.6743C67.3564 32.6743 67.8458 33.187 67.8458 34.5388C67.8458 36.8926 67.8458 39.2698 67.8458 41.6237C67.8458 43.0454 67.3797 43.5115 65.9348 43.5115C61.227 43.5115 56.5193 43.5115 51.7882 43.5115ZM50.2733 40.7381C53.0001 40.7381 55.587 40.7381 58.2206 40.7381C58.6867 39.0135 59.1761 37.2888 59.6655 35.4943C57.032 35.4943 54.5616 35.4943 52.0679 35.5176C51.928 35.5176 51.6717 35.6808 51.625 35.8206C51.1822 37.4054 50.7627 39.0135 50.2733 40.7381ZM38.4573 35.5176C38.4573 37.2888 38.4573 38.9902 38.4573 40.7148C39.576 40.7148 40.648 40.7148 41.79 40.7148C42.2561 39.0135 42.7223 37.2888 43.2117 35.5176C41.5803 35.5176 40.0421 35.5176 38.4573 35.5176ZM65.0258 40.7148C65.0258 38.9669 65.0258 37.2422 65.0258 35.471C64.3034 35.471 63.6275 35.4477 62.9516 35.4943C62.7885 35.4943 62.5554 35.6574 62.5088 35.774C62.0427 37.4054 61.5999 39.0368 61.1338 40.7148C62.4855 40.7148 63.744 40.7148 65.0258 40.7148ZM48.8284 35.4943C48.572 35.4943 48.4555 35.471 48.3156 35.471C47.5932 35.4943 46.6842 35.2612 46.1948 35.6108C45.752 35.9371 45.7287 36.8693 45.5423 37.5452C45.2393 38.594 44.9596 39.6427 44.6566 40.7614C45.4956 40.7614 46.2414 40.7847 46.9639 40.7381C47.127 40.7381 47.4067 40.5749 47.4533 40.4118C47.9194 38.827 48.3622 37.1956 48.8284 35.4943Z" fill="black"/>
<path d="M63.3947 17.7124C63.3714 24.1447 58.1742 29.3419 51.7418 29.3419C45.2861 29.3419 40.0423 24.0748 40.0889 17.6424C40.1355 11.1868 45.3793 5.98959 51.7884 6.0362C58.2441 6.08281 63.418 11.2567 63.3947 17.7124ZM51.7418 8.78627C46.8476 8.78627 42.8623 12.7948 42.8623 17.6657C42.8623 22.5366 46.8709 26.5452 51.7418 26.5685C56.636 26.5918 60.6679 22.5366 60.6446 17.6424C60.6213 12.7715 56.6127 8.78627 51.7418 8.78627Z" fill="black"/>
<path d="M39.4361 48.0095C40.2285 48.0095 40.8345 48.6155 40.8345 49.3612C40.8345 50.107 40.1819 50.7363 39.4361 50.7363C38.7136 50.7363 38.1077 50.1536 38.0844 49.4079C38.0611 48.6388 38.667 48.0095 39.4361 48.0095Z" fill="black"/>
<path d="M40.8345 54.3957C40.8112 55.1414 40.1586 55.7474 39.4128 55.7241C38.6437 55.7008 38.0611 55.0715 38.0844 54.3024C38.1077 53.5567 38.7137 52.9973 39.4595 52.9973C40.2285 53.0206 40.8578 53.6499 40.8345 54.3957Z" fill="black"/>
<path d="M45.1927 50.7367C44.4469 50.76 43.771 50.1075 43.771 49.3617C43.771 48.6392 44.377 48.0333 45.1227 48.01C45.9151 47.9866 46.5211 48.5693 46.5211 49.3617C46.4978 50.1075 45.9151 50.7367 45.1927 50.7367Z" fill="black"/>
<path d="M45.1693 55.7241C44.4003 55.7241 43.771 55.0948 43.771 54.349C43.771 53.6266 44.4003 53.0206 45.1227 52.9973C45.8918 52.9973 46.5211 53.6033 46.4978 54.3723C46.4978 55.1414 45.9151 55.7241 45.1693 55.7241Z" fill="black"/>
<path d="M50.8331 48.0095C51.6021 48.0095 52.2081 48.5922 52.2081 49.3846C52.2081 50.107 51.6254 50.713 50.8797 50.7363C50.1339 50.7596 49.4813 50.1536 49.458 49.3846C49.458 48.6155 50.064 48.0095 50.8331 48.0095Z" fill="black"/>
<path d="M50.856 55.7238C50.0869 55.7238 49.481 55.1178 49.481 54.3487C49.481 53.6262 50.0869 53.0203 50.8094 52.997C51.5785 52.9737 52.2077 53.5796 52.2077 54.3487C52.2077 55.1178 51.6251 55.7238 50.856 55.7238Z" fill="black"/>
<path d="M51.7416 10.8838C55.4472 10.8838 58.5003 13.9368 58.5236 17.6424C58.5469 21.3713 55.4472 24.471 51.7183 24.471C47.9894 24.471 44.8897 21.348 44.9363 17.6191C44.9829 13.9368 48.036 10.8838 51.7416 10.8838ZM51.7416 21.6976C53.9556 21.6976 55.7968 19.8332 55.7735 17.6424C55.7502 15.475 53.9556 13.6572 51.7649 13.6339C49.5975 13.6106 47.7097 15.4517 47.7097 17.6424C47.7097 19.8565 49.5508 21.6976 51.7416 21.6976Z" fill="black"/>
<path d="M48.4325 82.8053C51.975 82.8053 55.5174 82.782 59.0832 82.8053C61.6469 82.8286 63.9075 82.0595 65.9817 80.5213C74.4883 74.1588 81.0372 66.1184 86.2577 56.9126C86.8637 55.8173 86.5141 54.7685 85.3954 54.2325C82.1559 52.6943 77.9842 53.9062 76.446 57.1224C74.6515 60.8746 71.9014 63.4615 68.1492 65.0463C67.2868 65.4192 66.4478 65.8154 65.6321 66.2582C65.3991 66.3747 65.1893 66.7709 65.2126 67.0273C65.5156 71.199 62.9753 73.9724 58.8269 73.9957C53.0704 74.019 47.3138 73.9957 41.5573 73.9957C41.2777 73.9957 40.9747 73.9957 40.695 73.9258C39.9958 73.786 39.6229 73.2965 39.6229 72.6207C39.6229 71.8982 40.0424 71.4088 40.7416 71.2456C41.0446 71.1757 41.3709 71.199 41.6972 71.199C47.3604 71.199 53.047 71.199 58.7103 71.199C59.2464 71.199 59.829 71.1524 60.3417 70.9893C61.7168 70.5232 62.5791 69.0316 62.346 67.6799C62.0897 66.2116 60.8079 65.2095 59.1065 65.1862C55.9603 65.1628 52.814 65.1628 49.691 65.1862C47.3138 65.1862 45.0998 64.6035 43.0489 63.3683C42.6294 63.1119 42.1866 62.8556 41.837 62.506C40.6484 61.3407 39.2267 60.5716 37.572 60.525C34.3792 60.4551 31.1863 60.4551 27.9934 60.6182C26.1522 60.7115 24.5441 61.6204 23.2157 62.9022C21.5144 64.5336 19.7898 66.1417 18.0884 67.7731C17.2494 68.5655 16.3172 68.6354 15.7113 67.9362C15.1053 67.2604 15.2218 66.4214 16.0375 65.629C17.7156 64.0209 19.3936 62.4128 21.1182 60.828C23.239 58.8703 25.756 57.6584 28.6459 57.5652C31.7456 57.4487 34.8686 57.5186 37.9682 57.6584C39.9725 57.7516 41.837 58.4974 43.4451 59.7093C45.6824 61.3873 48.1528 62.1098 50.9495 62.0399C53.5831 61.9467 56.2399 62.0399 58.8968 62.0166C60.5981 61.9933 62.0897 62.4594 63.4181 63.5548C63.6045 63.7179 64.024 63.7645 64.2338 63.648C66.3313 62.5526 68.4055 61.4805 70.4331 60.292C71.1323 59.8725 71.6916 59.1733 72.181 58.4974C72.787 57.6118 73.2764 56.6563 73.7892 55.7007C76.1896 51.1561 82.3424 49.2684 86.8404 51.7155C89.1709 52.974 90.0099 55.6541 88.7514 57.9148C83.3911 67.4934 76.5625 75.8369 67.7763 82.5256C65.166 84.5066 62.3227 85.5087 59.0366 85.4854C52.1381 85.4621 45.2396 85.4388 38.3644 85.5087C37.1758 85.5087 36.0106 85.9515 34.822 86.0914C34.4491 86.138 33.8664 86.0214 33.6567 85.7418C33.377 85.3689 33.1206 84.7163 33.2838 84.3434C33.4935 83.854 34.0529 83.3413 34.5423 83.2015C35.6377 82.9451 36.7796 82.8286 37.8983 82.8286C41.3243 82.782 44.89 82.8053 48.4325 82.8053Z" fill="black"/>
<path d="M9.81465 68.2856C11.0499 68.309 12.2151 68.7284 13.1474 69.6374C19.067 75.4638 25.01 81.3135 30.9063 87.1632C32.6776 88.9112 32.5843 91.8943 30.6733 93.8753C28.8088 95.833 26.8278 97.6741 24.8702 99.5619C24.171 100.238 23.4718 100.121 22.6095 99.2822C17.8551 94.5745 13.1008 89.8667 8.34639 85.159C5.80607 82.6419 3.26574 80.1249 0.725417 77.6079C-0.253423 76.6524 -0.230118 76.0464 0.725417 75.1142C2.51996 73.343 4.33781 71.5717 6.15566 69.8005C7.1578 68.8217 8.34639 68.309 9.81465 68.2856ZM23.9146 96.5088C25.546 94.924 27.0842 93.4325 28.6224 91.9409C29.6711 90.9155 29.6478 89.7968 28.5758 88.748C22.8192 83.1081 17.0627 77.4681 11.3062 71.8514C10.2342 70.8027 9.09218 70.826 8.02011 71.898C6.66838 73.2265 5.33995 74.5782 4.01153 75.9066C3.84839 76.0697 3.73186 76.2329 3.59203 76.4193C10.3507 83.1314 17.1093 89.7735 23.9146 96.5088Z" fill="black"/>
</svg>
