<svg width="50" height="100" viewBox="0 0 50 100" fill="none" xmlns="http://www.w3.org/2000/svg">
<g clip-path="url(#clip0_2018_304)">
<path d="M42.4884 4.98849C42.3875 6.06019 42.3002 7.1319 42.2565 8.20908H42.6931C42.8759 8.19538 44.6139 8.0967 45.7817 9.48635C46.6303 10.495 46.6167 11.8298 46.6167 12.1916C46.8431 79.4896 46.9659 81.9044 46.9659 81.9044C46.9877 82.3649 47.1023 83.9464 46.1119 84.9386C45.2033 85.8458 43.7626 85.8595 42.7722 85.7526C42.7531 85.8705 42.734 85.9884 42.7149 86.1062C42.573 86.2789 42.2592 86.7065 42.1801 87.3396C42.0791 88.1537 42.4311 88.7594 42.5403 88.9321C42.8486 88.9266 43.307 88.9129 43.8636 88.8773C45.5062 88.7759 46.3465 88.7183 47.266 88.3319C47.6153 88.1866 48.131 87.9673 48.6003 87.5397C49.8036 86.4406 49.8963 84.6782 49.9236 83.9738C50.0246 81.3946 50.0246 51.2882 49.8663 10.0455C49.7326 9.37123 49.3697 8.05285 48.2674 6.89069C46.0655 4.56913 42.8731 4.93915 42.483 4.99123L42.4884 4.98849Z" fill="black"/>
<path d="M44.6057 85.9966C44.6057 85.9116 44.6166 85.8294 44.6302 85.7499H42.5729V8.20634H44.4938C44.3438 7.15108 44.1964 6.05471 44.3028 4.99945C44.1255 4.99945 43.9508 4.99945 43.7735 4.99945H42.4911C41.0995 1.16215 39.4352 0.0109612 35.4242 0.0109612C30.3492 0.0109612 25.2742 -0.0164481 20.1991 0.0109612C17.4433 0.0383705 15.2605 1.62811 14.442 4.2594C14.251 4.83499 14.0327 5.02686 13.4597 5.02686C12.0682 4.99945 10.7585 5.38318 9.63979 6.26028C7.89355 7.63074 7.2387 9.46716 7.2387 11.6599C7.26599 31.2849 7.2387 50.8826 7.26599 70.4802C7.26599 71.2751 7.15685 71.6314 6.25644 71.8507C3.03679 72.673 0.799411 74.7286 0.308279 78.0452C-0.100998 80.6765 -0.0191427 83.39 0.0899978 86.0487C0.362849 92.901 5.76531 98.9585 12.532 99.7533C15.6425 100.11 18.7803 99.9726 21.9181 99.9726C25.4379 99.9726 28.3847 97.7799 29.4488 94.4085C29.6944 93.6411 30.0764 93.504 30.7585 93.504C32.8594 93.504 34.9877 93.5588 37.0886 93.4218C39.3533 93.2573 40.9904 91.9965 41.8908 89.9408C42.2455 89.1185 42.6548 88.9267 43.4734 88.9267C44.0109 88.8115 44.5484 88.6992 45.0886 88.584C44.8703 88.4168 44.7585 88.2496 44.6985 88.14C44.2946 87.4027 44.6057 86.268 44.6057 85.9939V85.9966ZM10.4856 11.4406C10.4856 9.13825 11.768 8.01447 14.1146 8.28856V85.6924C11.6862 85.8568 10.4856 84.7604 10.4856 82.4581V11.4406ZM22.7094 96.6013C19.4624 96.7383 16.1609 96.9028 12.9413 96.519C7.62069 95.8886 3.58249 91.2016 3.30964 85.7746C3.2005 83.6915 3.22779 81.581 3.28236 79.4979C3.36421 77.0859 4.89218 75.3316 7.26599 74.8931C7.26599 77.4148 7.34784 79.8542 7.2387 82.2936C7.12956 86.3228 10.1309 89.0363 13.5689 88.9541C13.8963 88.9267 14.3874 89.2556 14.5238 89.5571C15.6425 92.1335 17.5798 93.3944 20.3356 93.4492C22 93.4766 23.6644 93.4492 25.3287 93.4492C25.6562 93.4492 25.9836 93.4766 26.4474 93.504C25.6834 95.2856 24.4829 96.519 22.7094 96.6013ZM39.2987 87.4191C39.2442 89.0363 38.1255 90.2423 36.5156 90.2423C31.0586 90.2697 25.6289 90.2697 20.1719 90.2423C18.5075 90.2423 17.4161 89.1459 17.3888 87.474C17.3615 82.787 17.3342 78.0726 17.3342 73.3856V46.6615C17.3342 34.3 17.3342 21.9384 17.3069 9.52198C17.3069 8.37079 17.3342 7.19219 17.3342 6.041C17.3615 4.50608 18.3438 3.35489 19.8717 3.21785C20.8813 3.13562 21.9181 3.16303 22.9277 3.16303H35.6971C38.3437 3.16303 39.2987 4.12235 39.2987 6.72623V87.4191Z" fill="black"/>
</g>
<defs>
<clipPath id="clip0_2018_304">
<rect width="50" height="100" fill="white"/>
</clipPath>
</defs>
</svg>
