<svg width="50" height="50" viewBox="0 0 50 50" fill="none" xmlns="http://www.w3.org/2000/svg">
<path d="M45.8554 15.3828C45.7746 18.0495 45.7955 20.724 45.5923 23.3815C45.1301 29.4063 43.3189 34.9414 39.3085 39.599C36.7304 42.5925 33.5767 44.8229 30.022 46.4857C28.5702 47.1654 27.0611 47.7227 25.5637 48.3021C25.2994 48.405 24.94 48.4284 24.6744 48.3399C20.9725 47.1003 17.4921 45.4258 14.3944 43.0117C9.82931 39.4544 6.92306 34.8177 5.46603 29.2396C4.66785 26.1836 4.34363 23.0664 4.3241 19.918C4.30066 16.0612 4.31759 12.2031 4.31889 8.34636C4.31889 7.43099 4.62488 7.10157 5.51551 7.04297C12.0949 6.60938 18.3319 4.92318 24.1874 1.87631C24.8046 1.55469 25.3059 1.5586 25.9152 1.87761C30.7186 4.39974 35.8306 5.96485 41.1952 6.70834C42.3033 6.86198 43.4231 6.94532 44.5389 7.03776C45.4751 7.11459 45.7798 7.41537 45.7811 8.35026C45.7837 10.694 45.7811 13.0378 45.7811 15.3815L45.854 15.3841L45.8554 15.3828ZM6.2616 8.97396C6.25509 9.10026 6.24337 9.21224 6.24337 9.32553C6.24337 12.9388 6.22254 16.5521 6.24988 20.1641C6.27202 23.0521 6.58973 25.9089 7.31629 28.7109C8.58061 33.5898 11.035 37.7266 14.9244 40.9714C17.8697 43.4284 21.2369 45.1107 24.8319 46.3685C24.9947 46.4258 25.2251 46.3984 25.3879 46.3268C27.3137 45.474 29.2994 44.7266 31.1405 43.7162C36.1392 40.9714 39.7915 36.9753 41.8527 31.5964C43.3098 27.793 43.8254 23.8281 43.8501 19.7839C43.871 16.3503 43.854 12.9154 43.854 9.48178V8.94141C42.9764 8.84896 42.1535 8.77995 41.3358 8.67188C35.8059 7.94011 30.5246 6.38152 25.5429 3.84896C25.1887 3.66928 24.9218 3.66667 24.5624 3.84896C20.1132 6.10027 15.4231 7.6198 10.5012 8.40495C9.10926 8.62761 7.70822 8.78256 6.2603 8.97527L6.2616 8.97396Z" fill="black"/>
<path d="M14.211 24.9987C14.2305 18.9219 19.0717 14.1159 25.1446 14.1432C31.0574 14.1693 35.9141 19.0586 35.8829 24.9505C35.849 31.1146 31.0613 35.8685 24.9011 35.8568C19.0326 35.8451 14.1915 30.9284 14.211 24.9987ZM33.9675 25.0208C33.9883 20.0886 30.0222 16.1042 25.06 16.0703C20.1576 16.0378 16.129 20.0677 16.1342 25.0039C16.1381 29.9258 20.1146 33.9219 25.0183 33.9297C29.9623 33.9375 33.948 29.9714 33.9675 25.0208Z" fill="black"/>
<path d="M23.5351 26.6302C25.0819 24.9674 26.5858 23.3489 28.091 21.7317C28.2564 21.5534 28.4166 21.3659 28.6028 21.2109C28.9804 20.8958 29.496 20.9166 29.8489 21.2383C30.1952 21.5534 30.259 22.0794 29.996 22.483C29.9348 22.5781 29.8567 22.6627 29.7785 22.7461C27.9986 24.6653 26.22 26.5846 24.4374 28.5C23.7577 29.2304 23.2838 29.2252 22.6132 28.4843C21.8384 27.6289 21.0637 26.7747 20.2955 25.9127C19.8384 25.3997 19.8215 24.8268 20.2356 24.4414C20.6627 24.0429 21.246 24.1146 21.7278 24.638C22.3202 25.2825 22.9049 25.9362 23.5364 26.6328L23.5351 26.6302Z" fill="black"/>
</svg>
