<?xml version="1.0" encoding="utf-8"?>
<!-- Svg Vector Icons : http://www.onlinewebfonts.com/icon -->
<!DOCTYPE svg PUBLIC "-//W3C//DTD SVG 1.1//EN" "http://www.w3.org/Graphics/SVG/1.1/DTD/svg11.dtd">
<svg version="1.1" xmlns="http://www.w3.org/2000/svg" xmlns:xlink="http://www.w3.org/1999/xlink" x="0px" y="0px" viewBox="0 0 256 256" enable-background="new 0 0 256 256" xml:space="preserve">
<metadata> Svg Vector Icons : http://www.onlinewebfonts.com/icon </metadata>
<g><g><path fill="#000000" d="M126.4,217.5c0.7,0.6,1.4,0.9,2.2,0.9c1.9,0,4-1.6,5.7-2.9l7.5-5.9c1-0.3,2-0.6,2.8-1c0.4,0.2,0.7,0.5,1.2,0.7l2.1,1.4l3.1-4.6l-2.1-1.4c-0.1,0-0.1-0.1-0.2-0.1c0.9-2.2,0.6-4.8-1-7.4c-2.2-3.6-7-7.3-11.9-6.9c-3.7,0.3-5.3,2.1-6,3.6c-1.5,3.4,0.5,7.7,2.1,10.2c-0.1,0.1-0.2,0.3-0.3,0.4c-0.7,0-1.5-0.1-2.3-0.2c-8.4-1-10-2.8-10.4-3.3c-0.4-0.8,0.4-2.5,1-4c1-2.2,2.3-4.8,0.8-7.3c-1.5-2.6-5-3.1-7.8-3.4c-5.7-0.4-8.4,1.8-9.5,3.8c-4.3,7.3,5.1,22,7,24.9l4.7-3.1c-3.9-5.7-8.7-15.8-6.8-19c0.7-1.1,2.7-1.2,4.2-1.1c2.2,0.2,3.1,0.6,3.3,0.5c-0.1,0.5-0.6,1.6-0.9,2.3c-1.1,2.4-2.7,5.8-0.8,9.1c1.8,3.2,6,5.1,13.8,6.1C124.2,215.4,125.3,216.4,126.4,217.5L126.4,217.5z M134.9,196.2c0,0,0.3-0.2,1.3-0.3c0.1,0,0.1,0,0.2,0c2,0,4.9,1.9,6.3,4.2c0.2,0.3,0.6,1,0.6,1.7l-0.4-0.2l-3.7,2.9c-0.2,0.1-0.4,0.1-0.7,0.1l0.2-0.2l-1.3-1.7C135.7,200,134.5,196.9,134.9,196.2L134.9,196.2z"/><path fill="#000000" d="M155.5,218.4l0.5-5.6c-14.7-1.3-23.3,10.5-23.7,10.9l4.6,3.2C137,226.9,143.9,217.4,155.5,218.4L155.5,218.4z"/><path fill="#000000" d="M164.7,219.6l0.7-5.6l-5.6-0.7l-0.7,5.6L164.7,219.6z"/><path fill="#000000" d="M193.9,176.2v2.5v48.2c0,7.9-6.4,14.4-14.4,14.4H39.6c-7.9,0-14.4-6.4-14.4-14.4V29.1c0-7.9,6.4-14.4,14.4-14.4h139.9c7.9,0,14.4,6.4,14.4,14.4v83.8l4.8-11.2V24.3c0-7.9-6.5-14.3-14.3-14.3H34.6c-7.9,0-14.3,6.4-14.3,14.4v207.2c0,7.9,6.5,14.4,14.3,14.4h149.8c7.9,0,14.3-6.4,14.3-14.4v-64.1l-3.8,6.9L193.9,176.2z"/><path fill="#000000" d="M141.5,37.9c3.1,0,5.7,2.5,5.7,5.6l0,0c0,3.1-2.5,5.6-5.7,5.6H77.7c-3.1,0-5.7-2.5-5.7-5.6l0,0c0-3.1,2.5-5.6,5.7-5.6H141.5z"/><path fill="#000000" d="M163.2,66.7c1.7,0,3.1,1.4,3.1,3.1l0,0c0,1.7-1.4,3.1-3.1,3.1H52.2c-1.7,0-3.1-1.4-3.1-3.1l0,0c0-1.7,1.4-3.1,3.1-3.1H163.2z"/><path fill="#000000" d="M163.2,85.5c1.7,0,3.1,1.5,3.1,3.2l0,0c0,1.7-1.5,3.2-3.1,3.2H52.2c-1.7,0-3.1-1.5-3.1-3.2l0,0c0-1.7,1.5-3.2,3.1-3.2H163.2z"/><path fill="#000000" d="M163.2,104.8c1.7,0,3.1,1.5,3.1,3.2l0,0c0,1.7-1.4,3.2-3.1,3.2H52.2c-1.7,0-3.1-1.5-3.1-3.2l0,0c0-1.7,1.4-3.2,3.1-3.2H163.2z"/><path fill="#000000" d="M163.2,124.4c1.7,0,3.1,1.4,3.1,3.1l0,0c0,1.7-1.4,3.1-3.1,3.1H52.2c-1.7,0-3.1-1.4-3.1-3.1l0,0c0-1.7,1.4-3.1,3.1-3.1H163.2z"/><path fill="#000000" d="M214.4,94.3l-9.9,9.8l21.3,21.1l9.9-9.9L214.4,94.3z"/><path fill="#000000" d="M153.8,154.3l21.3,21.1l48.3-47.8l-21.3-21L153.8,154.3z"/><path fill="#000000" d="M171.4,179l-21.3-21l-2.3,2.3l-6,27l27.3-5.9L171.4,179z"/></g></g>
</svg>