<svg width="88" height="88" viewBox="0 0 88 88" fill="none" xmlns="http://www.w3.org/2000/svg">
<g>
<circle id="Ellipse 15" cx="44" cy="44" r="38" fill="#39c3e0"/>
<path id="Vector" d="M82.2149 13.631C83.3341 12.4855 85.1352 12.4562 86.2939 13.5483L86.3783 13.6347L86.4605 13.7188C87.5409 14.919 87.5104 16.7861 86.3813 17.9367L86.3793 17.9388L31.4186 74.3826C31.4184 74.3828 31.4181 74.3831 31.4179 74.3833C30.2881 75.5392 28.3908 75.5389 27.2613 74.3825L27.2601 74.3812L1.61955 48.257C1.61906 48.2565 1.61858 48.256 1.6181 48.2555C0.459468 47.0606 0.46174 45.1225 1.61828 43.9371C2.76438 42.7624 4.62325 42.7621 5.77107 43.9374L5.77228 43.9386L28.7949 67.4049L29.3324 67.9527L29.8677 67.4029L82.2146 13.6314C82.2147 13.6313 82.2148 13.6311 82.2149 13.631Z" fill="white" stroke="#2F529F" stroke-width="1.5"/>
</g>
</svg>
