<svg width="50" height="50" viewBox="0 0 50 50" fill="none" xmlns="http://www.w3.org/2000/svg">
<g clip-path="url(#clip0_2016_167)">
<path d="M49.9999 32.0312V46.2891C49.9413 46.4375 49.8801 46.5846 49.8228 46.7331C49.3059 48.0729 47.7877 48.7057 46.4934 48.1029C46.1913 47.9622 45.9231 47.75 45.6288 47.5625C45.2304 47.8164 44.8319 48.0664 44.4374 48.3229C43.3658 49.0208 42.2187 49.5352 40.9556 49.7656C40.4322 49.8607 39.9022 49.9232 39.3749 50H23.6835C23.6106 49.9688 23.5403 49.9284 23.4648 49.9089C22.0077 49.526 21.0103 48.4427 20.9361 46.9401C20.9009 46.2279 21.1509 45.5013 21.2799 44.7318C20.358 44.3594 19.6497 43.6224 19.3489 42.5286C19.0442 41.4193 19.3411 40.4219 19.9023 39.6576C19.5963 39.2839 19.3137 38.987 19.0898 38.6497C18.9153 38.3867 18.7135 38.2969 18.4088 38.2904C16.7278 38.2539 15.0884 37.9453 13.4882 37.4401C3.98038 34.4362 -1.70712 24.6888 0.604076 14.9557C2.44001 7.22135 7.41527 2.41406 15.1132 0.472656C16.0338 0.239583 16.9921 0.153646 17.9335 0C18.8111 0 19.6874 0 20.565 0C21.4582 0.143229 22.3593 0.244792 23.2421 0.436198C34.0038 2.76693 40.5546 13.6198 37.6327 24.2721C37.5416 24.6029 37.6028 24.793 37.858 25.0169C39.2864 26.2721 40.6627 27.5742 41.8033 29.1185C42.5637 30.1471 43.6431 30.7917 44.8632 31.1914C45.1588 31.2891 45.3371 31.2786 45.5481 30.9922C46.1731 30.1419 47.1991 29.8112 48.1887 30.0964C49.1705 30.3802 49.6978 31.1016 49.9999 32.0299V32.0312ZM33.2252 17.6432C32.9752 13.5768 30.1028 8.15625 24.2447 5.92318C18.5546 3.75521 12.1549 5.47135 8.26684 10.2161C4.43611 14.8919 4.02465 21.5859 7.26423 26.7174C10.6119 32.0221 16.4153 33.7669 20.4192 33.224C20.4192 33.1927 20.4309 33.1562 20.4179 33.1315C19.2968 30.9792 20.8827 28.2279 23.7082 28.3164C25.6236 28.3763 27.5416 28.3255 29.4582 28.3229C29.6262 28.3229 29.7942 28.3086 30.0194 28.2995C29.8124 27.9583 29.6457 27.6823 29.4791 27.4076C28.0351 25.0365 27.2942 22.4935 27.5637 19.6927C27.6965 18.3216 28.6275 17.1589 29.9556 16.8008C31.1601 16.4753 32.2317 16.7656 33.2252 17.6445V17.6432ZM31.5754 48.3372C31.5754 48.3372 31.5754 48.3281 31.5754 48.3242C33.8983 48.3242 36.22 48.3411 38.5416 48.3177C39.7942 48.3047 41.0546 48.2109 42.1978 47.6393C43.0507 47.2122 43.8489 46.6732 44.6835 46.207C44.9491 46.0586 45.0233 45.8828 45.022 45.5885C45.0129 41.5365 45.0103 37.4857 45.0233 33.4336C45.0233 33.0807 44.927 32.9271 44.578 32.8294C42.8827 32.3581 41.4648 31.4271 40.4009 30.0312C38.9973 28.1901 37.3332 26.6315 35.4986 25.2448C34.0663 24.1628 33.1431 22.7552 32.7213 21.0169C32.6028 20.5286 32.5741 20.0195 32.4543 19.5326C32.2655 18.7578 31.5207 18.2474 30.7369 18.3151C29.9374 18.3828 29.2655 18.9857 29.233 19.7812C29.1991 20.638 29.1965 21.5078 29.2981 22.3581C29.5142 24.1589 30.3528 25.724 31.3137 27.224C31.7135 27.8477 31.8437 28.4857 31.4648 29.1523C31.095 29.8021 30.4947 29.9987 29.7746 29.9935C27.6965 29.9792 25.6171 29.9883 23.539 29.9935C22.483 29.9974 21.7343 30.6771 21.7239 31.6224C21.7148 32.5703 22.4934 33.3034 23.5403 33.3229C23.9791 33.3307 24.4179 33.319 24.8554 33.3268C25.5025 33.3372 25.8801 33.6641 25.8645 34.1914C25.8502 34.6966 25.4895 34.987 24.8515 34.9909C23.8606 34.9974 22.8684 34.9622 21.8801 35.0078C21.4934 35.026 21.0715 35.1432 20.7421 35.3424C20.1549 35.6992 19.9322 36.4518 20.1145 37.1055C20.3033 37.7839 20.8645 38.2799 21.5989 38.3138C22.5064 38.3555 23.4166 38.332 24.3267 38.3359C24.522 38.3359 24.7161 38.332 24.9114 38.3372C25.5064 38.3568 25.858 38.6576 25.8645 39.151C25.8723 39.6602 25.5064 39.9922 24.8918 40.0026C24.177 40.0143 23.4622 39.9974 22.7486 40.0104C22.4921 40.0156 22.2239 40.0326 21.9843 40.1133C21.2447 40.362 20.7903 41.1276 20.9023 41.8763C21.0299 42.7214 21.6575 43.3034 22.5364 43.3333C23.3632 43.3607 24.1926 43.3333 25.0207 43.3477C25.5129 43.3568 25.8371 43.6693 25.8645 44.1146C25.8918 44.582 25.578 44.9505 25.078 44.9961C24.772 45.0247 24.4504 44.957 24.1562 45.0234C23.8033 45.1016 23.4257 45.2109 23.1418 45.4206C22.5832 45.832 22.4192 46.5729 22.6483 47.2253C22.884 47.8971 23.496 48.332 24.2655 48.3333C26.7017 48.3411 29.1379 48.3359 31.5741 48.3359L31.5754 48.3372ZM35.9595 23.599C36.0129 23.569 36.0663 23.5391 36.1197 23.5104C37.9009 16.9102 35.5286 8.96615 28.8293 4.54427C22.2968 0.230469 13.7447 0.792969 7.83454 5.88802C1.92309 10.9857 0.0975655 19.3828 3.37882 26.4896C6.6184 33.5078 13.4765 36.5625 18.3476 36.5625C18.4921 36.0339 18.6353 35.5143 18.7668 35.0339C17.8866 34.9141 17.0129 34.8333 16.1549 34.6706C7.83975 33.0898 2.19001 24.9036 3.63272 16.5482C5.12882 7.88802 13.1887 2.11979 21.8254 3.52865C30.3319 4.91667 36.1549 12.9948 34.8267 21.5625C34.8033 21.7148 34.7916 21.9128 34.8671 22.0299C35.2134 22.5638 35.5924 23.0768 35.9595 23.5977V23.599ZM48.3384 39.1654C48.3384 37.4245 48.3384 35.6836 48.3384 33.9427C48.3384 33.4544 48.3541 32.9661 48.3293 32.4792C48.3059 32.0091 47.9452 31.6719 47.5142 31.6654C47.065 31.6589 46.7108 32.0143 46.6796 32.5065C46.6744 32.5872 46.677 32.6693 46.677 32.75C46.677 37.0286 46.677 41.3086 46.677 45.5872C46.677 45.7005 46.6718 45.8164 46.6861 45.9284C46.7369 46.3372 47.0702 46.6615 47.4674 46.6641C47.8905 46.6667 48.1783 46.4466 48.2968 46.0443C48.3463 45.8776 48.3345 45.6901 48.3358 45.5117C48.3384 43.3971 48.3371 41.2812 48.3371 39.1667L48.3384 39.1654Z" fill="black"/>
<path d="M39.3762 50C39.9036 49.9232 40.4335 49.8607 40.9569 49.7656C42.22 49.5365 43.3671 49.0208 44.4387 48.3229C44.8333 48.0664 45.2317 47.8164 45.6301 47.5625C45.9257 47.7487 46.1939 47.9622 46.4947 48.1029C47.789 48.7057 49.3059 48.0729 49.8241 46.7331C49.8814 46.5846 49.9413 46.4362 50.0012 46.2891V50H39.3775H39.3762Z" fill="white"/>
<path d="M15.1224 24.8073C15.2852 24.556 15.3672 24.3672 15.5039 24.2305C19.2071 20.5091 22.9167 16.7943 26.6237 13.0781C26.7266 12.974 26.8269 12.8672 26.9362 12.7695C27.3256 12.4245 27.7787 12.4128 28.1146 12.737C28.4584 13.0664 28.4519 13.556 28.0964 13.957C28.0209 14.0417 27.9375 14.1198 27.8568 14.1992C23.8841 18.1797 19.9115 22.1602 15.9388 26.1406C15.224 26.8581 14.9193 26.8555 14.2006 26.1367C12.9493 24.8828 11.7006 23.6263 10.444 22.3763C10.1211 22.0547 9.98571 21.7018 10.2006 21.28C10.4688 20.7565 11.1198 20.7044 11.5964 21.1758C12.625 22.1927 13.6446 23.2188 14.6628 24.2461C14.7878 24.3724 14.8907 24.5221 15.1211 24.806L15.1224 24.8073Z" fill="black"/>
</g>
<defs>
<clipPath id="clip0_2016_167">
<rect width="50" height="50" fill="white"/>
</clipPath>
</defs>
</svg>
