<svg viewBox="0 0 48 48" xmlns="http://www.w3.org/2000/svg" xmlns:xlink="http://www.w3.org/1999/xlink" width="48.000000" height="48.000000" fill="none" customFrame="#000000">
	<g id="Group 45">
		<circle id="Ellipse 2" cx="24" cy="24" r="24" fill="rgb(255,255,255)" fill-opacity="0.100000001" />
		<circle id="Ellipse 2" cx="24" cy="24" r="23.25" stroke="rgb(255,255,255)" stroke-width="1.5" />
		<g id="Group">
			<path id="Vector" d="M24.8133 30.1655C23.8396 31.1163 22.8658 32.0553 21.9035 32.9826C21.789 33.0883 21.6744 33.2056 21.5598 33.3113C20.8496 33.9451 19.956 33.7104 19.6467 32.7948C19.0853 31.1515 18.5469 29.4964 18.0085 27.8414C17.8252 27.3014 17.6304 26.7615 17.4815 26.2098C17.3899 25.8459 17.1722 25.705 16.84 25.6111C14.9268 25.0829 13.0137 24.543 11.1005 24.0148C10.5735 23.8622 10.3101 23.6039 10.2871 23.1814C10.2642 22.7588 10.5048 22.4536 11.0089 22.2658C14.5373 20.9629 18.0658 19.6599 21.5942 18.357C26.2912 16.6198 30.9881 14.8708 35.6851 13.1453C36.0059 13.0279 36.3839 12.9693 36.7276 13.0162C37.4493 13.1336 37.8388 13.7792 37.6784 14.5187C36.2693 20.9394 34.8488 27.3484 33.4397 33.7691C33.1991 34.8372 32.1452 35.2363 31.2287 34.6025C29.2239 33.2174 27.2306 31.8206 25.2372 30.4355C25.0883 30.365 24.9623 30.2711 24.8133 30.1655ZM20.334 31.4684C20.3799 31.4567 20.4257 31.4567 20.4715 31.4449C20.4944 31.3041 20.5403 31.1632 20.5517 31.0224C20.6777 30.0012 20.8152 28.9917 20.8954 27.9705C20.9298 27.501 21.1245 27.1958 21.4682 26.9141C25.1685 23.8269 28.8573 20.7281 32.5461 17.6293C32.6378 17.5588 32.7523 17.4884 32.7982 17.3945C32.8555 17.3006 32.9013 17.1245 32.8555 17.0541C32.8096 16.9719 32.6492 16.925 32.5347 16.925C32.4316 16.925 32.3285 17.0189 32.2254 17.0658C27.769 19.6834 23.3126 22.301 18.8562 24.9303C18.3751 25.212 18.3178 25.3764 18.4896 25.9398C19.051 27.6653 19.6009 29.379 20.1622 31.1045C20.208 31.2219 20.2768 31.3393 20.334 31.4684Z" fill="rgb(255,255,255)" fill-rule="nonzero" />
			<path id="Vector" d="M25.2372 30.4355C27.2306 31.8206 29.2239 33.2174 31.2287 34.6025C32.1452 35.2363 33.1991 34.8372 33.4397 33.7691C34.8488 27.3484 36.2693 20.9394 37.6784 14.5187C37.8388 13.7792 37.4493 13.1336 36.7276 13.0162C36.3839 12.9693 36.0059 13.0279 35.6851 13.1453C30.9881 14.8708 26.2912 16.6198 21.5942 18.357L11.0089 22.2658C10.5048 22.4536 10.2642 22.7588 10.2871 23.1814C10.3101 23.6039 10.5735 23.8622 11.1005 24.0148C13.0137 24.543 14.9268 25.0829 16.84 25.6111C17.1722 25.705 17.3899 25.8459 17.4815 26.2098C17.6304 26.7615 17.8252 27.3014 18.0085 27.8414C18.5469 29.4964 19.0853 31.1515 19.6467 32.7948C19.956 33.7104 20.8496 33.9451 21.5598 33.3113C21.6744 33.2056 21.789 33.0883 21.9035 32.9826C22.8658 32.0553 23.8396 31.1163 24.8133 30.1655C24.9623 30.2711 25.0883 30.365 25.2372 30.4355ZM21.3782 32.0993L24.7145 28.8693L25.3919 29.3499C25.4027 29.3575 25.4185 29.3687 25.4391 29.3834C25.5541 29.4654 25.6293 29.5147 25.6647 29.5315L25.7399 29.567L31.7975 33.78C31.9595 33.892 32.0991 33.9303 32.2162 33.8947C32.2224 33.8928 32.2285 33.8907 32.2345 33.8885C32.2441 33.8849 32.2534 33.8807 32.2624 33.8761C32.359 33.8267 32.4259 33.7193 32.4631 33.554L34.5824 23.9289L36.7011 14.3067C36.7245 14.1989 36.7193 14.1178 36.6854 14.0635C36.6676 14.035 36.6318 14.0155 36.578 14.0052C36.411 13.9851 36.229 14.0112 36.0318 14.0833L26.6386 17.5549L21.9406 19.2951L15.7239 21.5907L11.5966 23.1148L14.2382 23.8495L17.112 24.6488C17.2761 24.6952 17.4258 24.7534 17.5613 24.8233C17.7112 24.5398 17.9739 24.2881 18.3492 24.0684L31.7187 16.2037L31.7639 16.1772L31.7911 16.1648C31.7956 16.1621 31.8018 16.1584 31.8095 16.1537C32.0606 16.0012 32.3023 15.925 32.5347 15.925C32.8824 15.925 33.168 16.0082 33.3917 16.1748C33.5198 16.2701 33.6275 16.3927 33.7149 16.5427C33.7574 16.613 33.7914 16.6862 33.817 16.7623C33.8834 16.9595 33.8931 17.1758 33.8461 17.4113C33.8127 17.5786 33.7561 17.7327 33.6763 17.8737C33.6734 17.8788 33.6705 17.8839 33.6675 17.889C33.5674 18.0671 33.4085 18.236 33.1908 18.3959C33.1822 18.4023 33.175 18.4076 33.1692 18.4119L33.1632 18.4169L22.1021 27.6874C21.9938 27.7762 21.9272 27.8747 21.9023 27.9827C21.8973 28.0043 21.894 28.0264 21.8923 28.0488C21.8473 28.6223 21.7541 29.4711 21.6128 30.5954C21.5834 30.8297 21.5611 31.0079 21.546 31.13C21.5361 31.2294 21.5146 31.3521 21.4814 31.498C21.4689 31.5527 21.4613 31.5886 21.4585 31.6055L21.3782 32.0993ZM21.1718 32.2978L20.7197 32.4137C20.6785 32.4242 20.6328 32.4334 20.5826 32.4411C20.5865 32.4524 20.5903 32.4636 20.5941 32.4747C20.6342 32.5934 20.6733 32.6579 20.7115 32.6681C20.7459 32.6773 20.8028 32.6467 20.8819 32.5761C20.9135 32.5471 20.9642 32.4985 21.0342 32.4304C21.0881 32.3779 21.134 32.3337 21.1718 32.2978ZM20.3113 31.4189C20.319 31.4352 20.3266 31.4517 20.334 31.4684C20.3799 31.4567 20.4257 31.4567 20.4715 31.4449C20.4737 31.4314 20.4761 31.4178 20.4787 31.4042C20.5029 31.2769 20.5414 31.1497 20.5517 31.0224C20.5536 31.0071 20.5555 30.9918 20.5574 30.9766C20.5585 30.9673 20.5597 30.9581 20.5608 30.9489C20.6165 30.4995 20.6741 30.0522 20.7278 29.6052C20.793 29.0612 20.8524 28.5175 20.8954 27.9705C20.9298 27.501 21.1245 27.1958 21.4682 26.9141C24.6265 24.2791 27.7765 21.6356 30.9253 18.9908C31.3748 18.6133 31.8243 18.2357 32.2737 17.8581C32.3491 17.7948 32.4244 17.7315 32.4997 17.6683C32.5152 17.6553 32.5307 17.6423 32.5461 17.6293C32.5484 17.6275 32.5507 17.6258 32.553 17.6241C32.6434 17.5553 32.7535 17.4861 32.7982 17.3945C32.8555 17.3006 32.9013 17.1245 32.8555 17.0541C32.8096 16.9719 32.6492 16.925 32.5347 16.925C32.4316 16.925 32.3285 17.0189 32.2254 17.0658C32.1085 17.1345 31.9916 17.2031 31.8747 17.2718C31.3635 17.5721 30.8523 17.8724 30.3411 18.1727C26.5128 20.4215 22.6845 22.6716 18.8562 24.9303C18.3751 25.212 18.3178 25.3764 18.4896 25.9398C18.8988 27.1974 19.3018 28.4487 19.7076 29.7029C19.8586 30.1696 20.01 30.6366 20.1622 31.1045C20.2021 31.2067 20.2594 31.3089 20.3113 31.4189Z" fill="rgb(255,255,255)" fill-rule="evenodd" />
			<path id="Vector" d="M20.334 31.4682C20.2768 31.3509 20.2195 31.2217 20.1737 31.1044C19.6123 29.3789 19.051 27.6651 18.5011 25.9396C18.3178 25.3879 18.3865 25.2119 18.8677 24.9301C23.3241 22.3126 27.7804 19.6832 32.2368 17.0657C32.3399 17.007 32.443 16.9248 32.5461 16.9248C32.6607 16.9248 32.8211 16.9718 32.8669 17.0539C32.9127 17.1243 32.8669 17.3004 32.8096 17.3943C32.7523 17.4882 32.6378 17.5469 32.5576 17.6291C28.8688 20.7279 25.1799 23.8268 21.4796 26.9139C21.136 27.2073 20.9412 27.5125 20.9068 27.9703C20.8266 28.9915 20.6892 30.0127 20.5632 31.0222C20.5517 31.163 20.5059 31.3039 20.483 31.4448C20.4142 31.4448 20.3684 31.4565 20.334 31.4682Z" fill="rgb(255,255,255)" fill-opacity="0.100000001" fill-rule="nonzero" />
			<path id="Vector" d="M32.8669 17.0539C32.8211 16.9718 32.6607 16.9248 32.5461 16.9248C32.443 16.9248 32.3399 17.007 32.2368 17.0657C32.2026 17.0857 32.1684 17.1058 32.1343 17.1259C32.1151 17.1372 32.0959 17.1485 32.0767 17.1597C32.0132 17.197 31.9497 17.2343 31.8862 17.2717C31.3741 17.5725 30.862 17.8735 30.3499 18.1746C26.5225 20.4252 22.6951 22.682 18.8677 24.9301C18.3865 25.2119 18.3178 25.3879 18.5011 25.9396C18.9024 27.1989 19.3098 28.4519 19.7189 29.7078C19.8703 30.1728 20.022 30.6381 20.1737 31.1044C20.2128 31.2047 20.2604 31.3136 20.3091 31.4165C20.3174 31.4339 20.3257 31.4512 20.334 31.4682C20.3684 31.4565 20.4142 31.4448 20.483 31.4448C20.4859 31.4268 20.4892 31.4088 20.4927 31.3908C20.517 31.2679 20.5532 31.1451 20.5632 31.0222C20.5651 31.0067 20.567 30.9912 20.569 30.9757C20.5701 30.9667 20.5712 30.9577 20.5723 30.9487C20.628 30.5044 20.6856 30.0579 20.7391 29.6102C20.8044 29.0648 20.8639 28.5175 20.9068 27.9703C20.9412 27.5125 21.136 27.2073 21.4796 26.9139C24.638 24.2789 27.788 21.6354 30.9367 18.9906C31.3862 18.6131 31.8357 18.2355 32.2852 17.8579L32.5576 17.6291C32.6378 17.5469 32.7523 17.4882 32.8096 17.3943C32.8669 17.3004 32.9127 17.1243 32.8669 17.0539ZM25.7028 22.0696L19.4835 25.7281L20.0088 27.3611C20.0241 27.3109 20.0411 27.2613 20.0598 27.2123C20.2107 26.8161 20.4698 26.4612 20.8373 26.1475L25.7028 22.0696Z" fill="rgb(255,255,255)" fill-opacity="0.100000001" fill-rule="evenodd" />
		</g>
	</g>
</svg>
