<svg viewBox="0 0 48 48" xmlns="http://www.w3.org/2000/svg" xmlns:xlink="http://www.w3.org/1999/xlink" width="48.000000" height="48.000000" fill="none" customFrame="#000000">
	<g id="Group 46">
		<circle id="Ellipse 2" cx="24" cy="24" r="24" fill="rgb(255,255,255)" fill-opacity="0.100000001" />
		<circle id="Ellipse 2" cx="24" cy="24" r="23.25" stroke="rgb(255,255,255)" stroke-width="1.5" />
		<path id="Vector" d="M21.0859 21.6303C21.0859 20.6626 21.1181 19.6949 21.0752 18.7273C21.043 18.0634 20.764 17.4896 20.3562 16.972C20.2596 16.8482 20.1737 16.7357 20.0986 16.6007C19.7874 16.0606 20.0557 15.453 20.6566 15.4417C22.2879 15.4192 23.9191 15.4305 25.5611 15.4417C25.9259 15.4417 26.1728 15.6555 26.2372 16.0381C26.2801 16.2518 26.2908 16.4881 26.2908 16.7019L26.2908 22.6542C26.2908 23.0368 26.2479 23.4868 26.6342 23.6669C27.0313 23.8582 27.3425 23.5431 27.6323 23.2843C28.7591 22.2379 29.564 20.9214 30.2938 19.5599C30.8304 18.5585 31.3133 17.5233 31.7747 16.4769C32.086 15.7568 32.5474 15.4079 33.2987 15.4305C34.2323 15.453 35.1767 15.4305 36.1104 15.4417C37.0226 15.453 37.3231 15.8355 37.0118 16.7469C36.7865 17.4108 36.5182 18.0634 36.1748 18.6598C35.1982 20.3363 34.1787 21.9903 33.1591 23.6331C32.5904 24.5445 32.5904 24.7696 33.2987 25.5797C34.4148 26.8737 35.5416 28.1451 36.6255 29.4729C37.0226 29.9567 37.3338 30.5418 37.5806 31.1269C37.924 31.9483 37.5914 32.4996 36.7436 32.5446C35.6596 32.5896 34.5757 32.5671 33.4918 32.5559C32.9123 32.5446 32.5045 32.1733 32.1289 31.757C31.2918 30.8456 30.4762 29.9117 29.6177 29.0228C29.1884 28.584 28.684 28.2239 28.2011 27.8526C28.0079 27.7063 27.7825 27.605 27.5572 27.5263C26.7094 27.2225 26.323 27.515 26.3123 28.4377C26.3015 29.4054 26.3123 30.373 26.3015 31.3519C26.3015 32.0158 26.0976 32.3083 25.4645 32.4321C23.9406 32.7472 22.4488 32.4996 21.0108 31.9258C18.5961 30.9581 16.7181 29.2591 15.2156 27.0875C13.3161 24.342 11.6956 21.4502 10.6868 18.2097C10.5044 17.6358 10.3756 17.0395 10.3005 16.4544C10.2146 15.8468 10.5044 15.498 11.0839 15.4867C12.2215 15.453 13.359 15.4642 14.4966 15.4867C15.0547 15.498 15.3444 15.903 15.5376 16.3981C15.8595 17.2645 16.16 18.1309 16.5035 18.9861C17.2332 20.7526 18.081 22.4629 19.24 23.9707C19.4869 24.297 19.7766 24.6008 20.0879 24.8596C20.6566 25.3322 21.0966 25.1296 21.1288 24.3645C21.1718 23.4643 21.1396 22.5642 21.1396 21.664C21.1181 21.6303 21.1074 21.6303 21.0859 21.6303Z" fill="rgb(255,255,255)" fill-rule="nonzero" />
	</g>
</svg>
