<svg viewBox="0 0 50 50" xmlns="http://www.w3.org/2000/svg" xmlns:xlink="http://www.w3.org/1999/xlink" width="50.000000" height="50.000000" fill="none" customFrame="#000000">
	<g id="Group 15">
		<rect id="Rectangle 15" width="50.000000" height="50.000000" x="0.000000" y="0.000000" rx="25.000000" fill="rgb(18,98,46)" />
		<g id="Group">
			<path id="Vector" d="M25.3266 32.6223C24.3936 33.5309 23.4618 34.4294 22.5396 35.318C22.416 35.4321 22.2923 35.5588 22.1687 35.6728C21.4021 36.3569 20.4376 36.1035 20.1037 35.1153C19.4979 33.3416 18.9167 31.5552 18.3356 29.7689C18.1377 29.1861 17.9275 28.6033 17.7668 28.0078C17.6679 27.6151 17.4329 27.463 17.0743 27.3617C15.0094 26.7916 12.9445 26.2088 10.8795 25.6387C10.3107 25.474 10.0263 25.1952 10.0016 24.7391C9.97688 24.283 10.2365 23.9536 10.7806 23.7509C14.589 22.3446 18.3974 20.9383 22.2058 19.532C27.2754 17.657 32.345 15.7692 37.4146 13.9069C37.7608 13.7802 38.1689 13.7168 38.5398 13.7675C39.3188 13.8942 39.7392 14.591 39.5661 15.3892C38.0452 22.3193 36.512 29.2368 34.9911 36.1669C34.7314 37.3198 33.5939 37.7505 32.6047 37.0664C30.4543 35.5808 28.3162 34.0826 26.1782 32.5968C26.1513 32.5782 26.1228 32.562 26.0938 32.547C25.8394 32.4161 25.5316 32.4227 25.3266 32.6223ZM20.8099 33.6067C20.8312 33.6508 20.8807 33.6761 20.9294 33.6698C20.9689 33.6646 20.998 33.6329 21.0058 33.5937C21.032 33.4632 21.07 33.3327 21.0806 33.2023C21.2166 32.1 21.365 31.0105 21.4515 29.9082C21.4886 29.4015 21.6988 29.0721 22.0698 28.768C26.0636 25.436 30.0451 22.0912 34.0266 18.7465C34.1256 18.6705 34.2492 18.5945 34.2987 18.4932C34.3605 18.3918 34.41 18.2018 34.3605 18.1257C34.311 18.0371 34.1379 17.9864 34.0143 17.9864C33.903 17.9864 33.7917 18.0877 33.6804 18.1384C28.8705 20.9637 24.0605 23.7889 19.2506 26.6269C18.7312 26.9309 18.6694 27.1083 18.8549 27.7164C19.4608 29.5788 20.0543 31.4285 20.6602 33.2909C20.7004 33.3939 20.7569 33.4969 20.8099 33.6067Z" fill="rgb(255,255,255)" fill-rule="nonzero" />
			<path id="Vector" d="M20.8096 33.6085C20.7601 33.5033 20.7123 33.393 20.6724 33.2909C20.0665 31.4285 19.4606 29.5788 18.8671 27.7164C18.6693 27.1209 18.7435 26.9309 19.2628 26.6268C24.0728 23.8016 28.8827 20.9636 33.6927 18.1384C33.8039 18.075 33.9152 17.9863 34.0265 17.9863C34.1502 17.9863 34.3233 18.037 34.3727 18.1257C34.4222 18.2017 34.3727 18.3917 34.3109 18.4931C34.2491 18.5945 34.1254 18.6578 34.0389 18.7465C30.0574 22.0912 26.0759 25.4359 22.082 28.7679C21.7111 29.0847 21.5009 29.4141 21.4638 29.9082C21.3772 31.0104 21.2288 32.1126 21.0928 33.2022C21.0826 33.3279 21.047 33.4537 21.021 33.5794C21.0116 33.6247 20.972 33.6571 20.9263 33.6639C20.8792 33.6708 20.8298 33.6516 20.8096 33.6085Z" fill="rgb(18,98,46)" fill-rule="nonzero" />
		</g>
	</g>
</svg>
