<svg viewBox="0 0 50 50" xmlns="http://www.w3.org/2000/svg" xmlns:xlink="http://www.w3.org/1999/xlink" width="50.000000" height="50.000000" fill="none" customFrame="#000000">
	<g id="Group 16">
		<rect id="Rectangle 15" width="50.000000" height="50.000000" x="0.000000" y="0.000000" rx="25.000000" fill="rgb(18,98,46)" />
		<path id="Vector" d="M21.1939 21.923C21.1952 20.8534 21.23 19.7837 21.1815 18.7141C21.1444 17.9666 20.8229 17.3204 20.353 16.7377C20.2417 16.5983 20.1428 16.4716 20.0563 16.3196C19.6977 15.7114 20.0068 15.0273 20.6992 15.0146C22.5787 14.9893 24.4582 15.002 26.35 15.0146C26.7704 15.0146 27.0548 15.2553 27.129 15.6861C27.1785 15.9268 27.1908 16.1929 27.1908 16.4336L27.1908 23.1357C27.1908 23.5664 27.1414 24.0732 27.5865 24.2759C28.044 24.4913 28.4026 24.1366 28.7364 23.8452C30.0348 22.6669 30.9621 21.1846 31.8029 19.6516C32.4212 18.524 32.9776 17.3585 33.5093 16.1802C33.8679 15.3694 34.3996 14.9766 35.2651 15.002C36.3409 15.0273 37.429 15.002 38.5047 15.0146C39.5557 15.0273 39.902 15.4581 39.5434 16.4843C39.2837 17.2318 38.9746 17.9666 38.5789 18.6381C37.4537 20.5258 36.279 22.3882 35.1044 24.2379C34.449 25.2641 34.449 25.5175 35.2651 26.4297C36.5511 27.8867 37.8494 29.3183 39.0982 30.8133C39.5557 31.3581 39.9143 32.0169 40.1987 32.6757C40.5944 33.6005 40.2111 34.2213 39.2343 34.272C37.9854 34.3227 36.7365 34.2974 35.4877 34.2847C34.82 34.272 34.3501 33.8539 33.9173 33.3852C32.9529 32.3589 32.0131 31.3074 31.024 30.3065C30.5294 29.8124 29.9482 29.407 29.3918 28.9889C29.1692 28.8242 28.9096 28.7102 28.6499 28.6215C27.6731 28.2794 27.2279 28.6088 27.2156 29.6477C27.2032 30.7373 27.2156 31.8268 27.2032 32.9291C27.2032 33.6766 26.9683 34.006 26.2387 34.1453C24.4829 34.5001 22.7642 34.2213 21.1073 33.5752C18.3252 32.4856 16.1613 30.5726 14.4302 28.1274C12.2416 25.0361 10.3745 21.7801 9.21224 18.1313C9.00204 17.4852 8.85366 16.8137 8.76711 16.1549C8.66819 15.4707 9.00204 15.078 9.66975 15.0653C10.9804 15.0273 12.2911 15.04 13.6018 15.0653C14.2448 15.078 14.5786 15.5341 14.8012 16.0915C15.1721 17.0671 15.5184 18.0426 15.914 19.0055C16.7548 20.9946 17.7317 22.9203 19.0671 24.618C19.3515 24.9854 19.6853 25.3275 20.0439 25.6189C20.6992 26.151 21.2062 25.9229 21.2433 25.0614C21.2925 24.0538 21.2561 23.0461 21.2557 22.0385C21.2557 22.0269 21.2526 22.0154 21.2454 22.0063C21.2251 21.9803 21.1939 21.956 21.1939 21.923Z" fill="rgb(255,255,255)" fill-rule="nonzero" />
	</g>
</svg>
