<svg width="29" height="29" viewBox="0 0 29 29" fill="none" xmlns="http://www.w3.org/2000/svg">
<path d="M5.93919 21.4796C5.9074 21.4002 5.87163 21.3247 5.84382 21.2492C5.68884 20.816 5.75242 20.4187 6.03456 20.057C6.10211 19.9736 6.18158 19.9021 6.25708 19.8266C9.60297 16.4807 12.9489 13.1348 16.2947 9.78892C16.3543 9.72932 16.4139 9.66971 16.5133 9.57037C16.3981 9.56639 16.3226 9.56242 16.251 9.56242C14.1887 9.55845 12.1263 9.56242 10.0639 9.55845C9.41223 9.55845 8.8877 9.22465 8.80425 8.64846C8.72875 8.11996 8.73669 7.56363 8.80425 7.02718C8.86783 6.51854 9.33673 6.1768 9.84934 6.13309C9.92087 6.12514 9.99239 6.12514 10.0639 6.12514C13.7277 6.12514 17.3955 6.12117 21.0632 6.12514C21.7308 6.12514 22.2037 6.46291 22.3467 7.04307C22.3785 7.17023 22.3865 7.31329 22.3865 7.44839C22.3904 11.1162 22.3904 14.7799 22.3865 18.4477C22.3865 19.2742 21.8897 19.7709 21.0672 19.7749C20.8009 19.7789 20.5387 19.7789 20.2724 19.7749C19.4658 19.7709 18.973 19.2861 18.973 18.4755C18.973 16.4012 18.977 14.323 18.981 12.2447C18.981 12.1652 18.977 12.0897 18.973 11.9665C18.8856 12.054 18.826 12.1136 18.7664 12.1732C15.4404 15.4992 12.1144 18.8252 8.78835 22.1512C8.11282 22.8267 7.82671 22.8824 6.96044 22.5168C6.62664 22.1671 6.2849 21.8254 5.93919 21.4796Z" fill="#12622E"/>
</svg>
