<svg viewBox="0 0 24 23" xmlns="http://www.w3.org/2000/svg" xmlns:xlink="http://www.w3.org/1999/xlink" width="24.000000" height="23.000000" fill="none" customFrame="#000000">
	<path id="Vector" d="M23.999 2.23623C23.829 2.60752 23.7285 3.03772 23.4778 3.33854C22.6842 4.28833 21.8563 5.21182 21.0026 6.10586C19.0692 8.12956 17.4363 10.3994 15.7847 12.6524C13.7157 15.4744 11.7087 18.3406 10.0406 21.4361C9.83856 21.8116 9.56814 22.1608 9.27596 22.4711C8.72579 23.0538 8.07719 23.1779 7.41823 22.7288C6.79242 22.3017 6.18423 21.8053 5.68794 21.2331C3.64475 18.8739 1.72485 16.4179 0.368592 13.5643C0.234935 13.2824 0.119928 12.9847 0.0442921 12.6829C-0.0924733 12.1317 0.0898805 11.7089 0.558199 11.3944C0.665953 11.3218 0.778888 11.2598 0.891823 11.1956C2.1797 10.4667 2.95263 10.6076 3.8416 11.7951C4.95956 13.2898 6.04954 14.8054 7.14781 16.3158C7.57675 16.9059 7.87826 16.9311 8.32896 16.3537C8.60042 16.0056 8.81178 15.609 9.07081 15.2493C10.9969 12.5661 12.8453 9.81877 14.8854 7.2292C16.481 5.2034 18.3025 3.35957 20.0576 1.46841C20.5032 0.98878 21.0492 0.583831 21.6045 0.23568C22.2542 -0.171373 22.7442 -0.0409474 23.2478 0.548069C23.6488 1.01823 23.8891 1.55886 24 2.23834L23.999 2.23623Z" fill="rgb(18,98,46)" fill-rule="nonzero" />
</svg>
