<svg width="23" height="23" viewBox="0 0 23 23" fill="none" xmlns="http://www.w3.org/2000/svg">
<path d="M16.5082 18.7888L16.1008 18.3814C10.9464 13.2271 5.79136 8.07203 0.637027 2.91769C-0.0493321 2.23134 -0.182813 1.47624 0.245211 0.757435C0.745988 -0.0843072 1.9249 -0.256555 2.68378 0.40304C2.82083 0.522822 2.94854 0.653414 3.07769 0.782567C8.19513 5.9 13.3133 11.0182 18.4307 16.1356C18.5289 16.2338 18.6278 16.3327 18.8042 16.509C18.8042 16.2788 18.8061 16.1469 18.8044 16.0143C18.7548 12.1199 18.7074 8.22481 18.6535 4.33036C18.6443 3.66355 18.8589 3.12565 19.4477 2.78632C20.4929 2.18539 21.803 2.87095 21.9321 4.08357C21.9445 4.19812 21.9445 4.3147 21.9459 4.42984C22.0134 9.72488 22.0786 15.0206 22.1518 20.3157C22.1618 21.0438 21.9435 21.6355 21.2722 21.9585C21.0296 22.0757 20.7338 22.1353 20.4605 22.1325C15.0752 22.0742 9.68911 22.0049 4.30366 21.9334C3.52317 21.9227 2.92478 21.5071 2.67354 20.8313C2.4389 20.1996 2.61191 19.4819 3.11054 19.0438C3.46218 18.7349 3.88575 18.639 4.3536 18.645C8.23494 18.6988 12.1169 18.746 15.9989 18.7947C16.1359 18.7965 16.2721 18.7916 16.5067 18.7888L16.5082 18.7888Z" fill="white"/>
</svg>
