<svg xmlns="http://www.w3.org/2000/svg" width="16" height="16" viewBox="0 0 16 16" fill="none">
    <g fill="#39c3e0">
        <path d="M15.5 15.8333H0.5C0.224 15.8333 0 15.6093 0 15.3333C0 15.0573 0.224 14.8333 0.5 14.8333H15.5C15.776 14.8333 16 15.0573 16 15.3333C16 15.6093 15.776 15.8333 15.5 15.8333Z"/>
        <path d="M8.0019 12.4593C7.88456 12.4593 7.7679 12.418 7.67523 12.338L3.69656 9.03867C3.4839 8.862 3.45456 8.54733 3.63056 8.33467C3.80656 8.122 4.12256 8.09267 4.33456 8.26867L7.50123 10.894V0.695999C7.50123 0.419999 7.72523 0.195999 8.00123 0.195999C8.27723 0.195999 8.50123 0.419999 8.50123 0.695999V10.906L11.6846 8.30867C11.8986 8.134 12.2126 8.16533 12.3886 8.38C12.5632 8.594 12.5312 8.90867 12.3179 9.08333L8.32056 12.3447C8.3119 12.352 8.30256 12.3587 8.29323 12.366C8.2059 12.4293 8.1039 12.4593 8.0019 12.4593Z"/>
    </g>
</svg>

