<svg width="100%" height="100%" viewBox="0 0 24 24" fill="none" xmlns="http://www.w3.org/2000/svg">
    <path fill-rule="evenodd" clip-rule="evenodd"
          d="M12 20.5C12.5523 20.5 13 20.0523 13 19.5L13 6.41421L17.2929 10.7071C17.6834 11.0976 18.3166 11.0976 18.7071 10.7071C19.0976 10.3166 19.0976 9.68342 18.7071 9.29289L12.7071 3.29289C12.5196 3.10536 12.2652 3 12 3C11.7348 3 11.4804 3.10536 11.2929 3.29289L5.29289 9.29289C4.90237 9.68342 4.90237 10.3166 5.29289 10.7071C5.68342 11.0976 6.31658 11.0976 6.70711 10.7071L11 6.41421L11 19.5C11 20.0523 11.4477 20.5 12 20.5Z"
          fill="currentColor"></path>
</svg>