<svg viewBox="0 0 475.45403 475.45403" xmlns="http://www.w3.org/2000/svg">
    <g fill="#777">
        <path d="m419.011719 419.015625h-362.664063c-29.46875 0-53.335937-23.867187-53.335937-53.332031v-256c0-29.464844 23.867187-53.332032 53.335937-53.332032h79.332032l32-53.335937h140.132812l32 53.335937h79.199219c29.46875 0 53.335937 23.867188 53.335937 53.332032v256c0 29.464844-23.867187 53.332031-53.335937 53.332031zm-362.664063-341.332031c-17.601562 0-32 14.398437-32 32v256c0 17.601562 14.398438 32 32 32h362.664063c17.601562 0 32-14.398438 32-32v-256c0-17.601563-14.398438-32-32-32h-91.332031l-32-53.332032h-115.867188l-32 53.332032zm0 0"></path>
        <path d="m237.679688 355.015625c-64.667969 0-117.332032-52.664063-117.332032-117.332031 0-64.667969 52.664063-117.332032 117.332032-117.332032 64.667968 0 117.332031 52.664063 117.332031 117.332032 0 64.667968-52.664063 117.332031-117.332031 117.332031zm0-213.332031c-52.933594 0-96 43.066406-96 96s43.066406 96 96 96c52.933593 0 96-43.066406 96-96s-43.066407-96-96-96zm0 0"></path>
        <path d="m376.347656 109.683594h42.664063v21.332031h-42.664063zm0 0"></path>
        <path d="m15.085938 0 460.367187 460.371094-15.082031 15.082031-460.371094-460.367187zm0 0"></path>
    </g>
</svg>